<?xml version="1.0" encoding="utf-8"?>
<!-- Generator: Adobe Illustrator 24.3.0, SVG Export Plug-In . SVG Version: 6.00 Build 0)  -->
<svg version="1.1" id="Layer_1" xmlns="http://www.w3.org/2000/svg" xmlns:xlink="http://www.w3.org/1999/xlink" x="0px" y="0px"
	 viewBox="0 0 406 306" style="enable-background:new 0 0 406 306;" xml:space="preserve">
<style type="text/css">
	.st0{opacity:0.24;fill:#68E1FD;enable-background:new    ;}
	.st1{fill:#68E1FD;}
	.st2{fill:url(#SVGID_1_);}
	.st3{fill:url(#SVGID_2_);}
	.st4{fill:#606161;}
	.st5{fill:#2F3554;}
	.st6{fill:url(#SVGID_3_);}
	.st7{fill:url(#SVGID_4_);}
	.st8{fill:url(#SVGID_5_);}
	.st9{fill:url(#SVGID_6_);}
	.st10{fill:url(#SVGID_7_);}
	.st11{fill:url(#SVGID_8_);}
	.st12{fill:url(#SVGID_9_);}
	.st13{fill:url(#SVGID_10_);}
	.st14{fill:url(#SVGID_11_);}
	.st15{fill:url(#SVGID_12_);}
	.st16{fill:url(#SVGID_13_);}
	.st17{fill:#FFFFFF;}
	.st18{fill:url(#SVGID_14_);}
	.st19{fill:url(#SVGID_15_);}
	.st20{fill:url(#SVGID_16_);}
	.st21{fill:url(#SVGID_17_);}
	.st22{fill:url(#SVGID_18_);}
	.st23{fill:url(#SVGID_19_);}
	.st24{opacity:0.53;fill:#68E1FD;enable-background:new    ;}
	.st25{fill:url(#SVGID_20_);}
	.st26{fill:url(#SVGID_21_);}
	.st27{fill:url(#SVGID_22_);}
</style>
<path class="st0" d="M400.8,208.3c-0.5,4.5-1.3,9-2.3,13.5c-1.8,7.6-4.6,15-8.9,21.4c-0.5,0.7-0.9,1.3-1.4,2
	c-13,17.1-35.7,23.3-57,25.8c-35,4.1-70.4,1.3-105.7,1.8c-56.6,0.7-113.5,10-169.5,2c-14.5-2.1-31.3-7.4-40.7-19.5
	c-1.4-1.8-2.6-3.8-3.6-5.9c-4.2-8.6-6.4-19.1-7.2-30c-0.9-14,0-28.1,2.7-41.8c5-25.4,18.1-49.6,38.2-66C61.7,98.2,82.4,90,96.1,73.9
	c14.1-16.6,19.3-40.1,36-54c8.6-7.2,19.4-11.1,30.3-14c20.5-5.4,42-7.7,62.9-4.3s41.1,13,55.4,28.7c19.7,21.5,27.6,53.5,51.8,69.8
	c11.3,7.6,25,10.9,36.5,18.3c14.1,9.1,23.8,24,28.7,40C402.5,174.5,402.8,191.6,400.8,208.3z"/>
<path class="st1" d="M118,205.1c0.1,0.4,0.2,1-0.1,1.3c-0.3,0.2-0.6,0.2-0.9,0.2c-3.6-0.3-7.1-0.9-10.7-1.7c-0.8,0-1.5-0.7-1.5-1.5
	c0-0.1,0-0.2,0-0.3c-0.2-5.6,0.1-11.2,0.7-16.8c0.3-3.1,0.8-7.8,3.4-9.9c3.2-2.6,4.3,1.1,4.6,3.7C114.5,188.5,115.6,196.9,118,205.1
	z"/>
<linearGradient id="SVGID_1_" gradientUnits="userSpaceOnUse" x1="369.9722" y1="-224.1882" x2="391.7605" y2="-224.1882" gradientTransform="matrix(0.6115 0 0 -0.6115 -121.4553 53.897)">
	<stop  offset="0" style="stop-color:#FFFFFF;stop-opacity:0"/>
	<stop  offset="0.95" style="stop-color:#FFFFFF"/>
</linearGradient>
<path class="st2" d="M118,205.1c0.1,0.4,0.2,1-0.1,1.3c-0.3,0.2-0.6,0.2-0.9,0.2c-3.6-0.3-7.1-0.9-10.7-1.7c-0.8,0-1.5-0.7-1.5-1.5
	c0-0.1,0-0.2,0-0.3c-0.2-5.6,0.1-11.2,0.7-16.8c0.3-3.1,0.8-7.8,3.4-9.9c3.2-2.6,4.3,1.1,4.6,3.7C114.5,188.5,115.6,196.9,118,205.1
	z"/>
<linearGradient id="SVGID_2_" gradientUnits="userSpaceOnUse" x1="578.4254" y1="-81.2013" x2="607.3534" y2="-81.2013" gradientTransform="matrix(0.6115 0 0 -0.6115 -121.4553 53.897)">
	<stop  offset="0" style="stop-color:#E5C6D6"/>
	<stop  offset="0.42" style="stop-color:#EAD4D0"/>
	<stop  offset="1" style="stop-color:#F0E9CB"/>
</linearGradient>
<path class="st3" d="M246.5,94.8c-1.5-1.3-3.1-2.6-5.1-2.7c-1.8-0.1-3.6,0.9-4.9,2.3c-1.2,1.4-2.1,3.1-2.8,4.8
	c-0.6,1.2-1.1,2.6-1.3,3.9c-0.3,2.1,0.4,4.1,0.6,6.2c0.1,1.1,0,2.3,0.5,3.4c0.6,1.2,1.7,2,3,2.3c1.3,0.3,2.6,0.2,3.9-0.2
	c0.5-0.1,0.9-0.3,1.2-0.6c0.8-0.8,0.2-2.2,0.5-3.2c0.3-0.9,1.1-1.7,2-2c0.9-0.3,1.8-0.8,2.7-1.3c0.9-0.6,1.5-1.6,1.7-2.6
	c0.2-1,0-2.2,0.6-3.1c0.2-0.4,0.5-0.7,0.7-1.1c0.2-0.4,0.3-0.8,0.1-1.2c-0.2-0.2-0.4-0.4-0.6-0.5c-1-0.7-1.7-1.7-1.9-2.9
	C247.2,95.5,246.9,95.1,246.5,94.8z"/>
<path class="st4" d="M239.3,104.9c-1-0.5-1.8-1.2-2.5-2c-0.8,0.9-0.9,2.3-0.1,3.2c0.2,0.1,0.3,0.3,0.4,0.5c0,0.1,0.1,0.3,0.1,0.4
	l0.1,4.1c0,0.5-0.2,1.3-0.7,1.3c-0.2,0-0.4-0.1-0.5-0.3c-0.9-0.6-1.9-0.9-2.9-1c-0.3,0-0.7,0-1-0.1c-0.3-0.1-0.6-0.4-0.8-0.6
	l-1.7-1.8c-0.2-0.2-0.4-0.5-0.5-0.8c-0.1-0.3-0.1-0.6,0-0.9l0.6-4.2c0.1-0.8,0.3-1.7,0.6-2.5c0.3-0.6,0.7-1.2,1.2-1.7
	c1.2-1.2,2.8-2.1,4.5-1.9c1.6,0.2,2.7,1.6,2.8,3.2C238.7,101.5,238.8,103.3,239.3,104.9z"/>
<path class="st1" d="M233.4,85.3c-2.7,0-5.6,0-7.6,1.7c-2.3,2-2.7,5.6-1.8,8.5c0.7,2.3,2,4.4,1.7,6.8c-0.2,1.7-1.3,3.4-0.7,5
	c0.5,1.4,2.2,2.1,3.7,2c1.5-0.3,2.8-1,3.9-2.1c3.3-2.9,5.6-7.1,9.5-9.1c2.9-1.5,9.5-4.1,5.4-8.2C243.9,86.3,238.3,85.4,233.4,85.3z"
	/>
<path class="st5" d="M233.4,85.3c-2.7,0-5.6,0-7.6,1.7c-2.3,2-2.7,5.6-1.8,8.5c0.7,2.3,2,4.4,1.7,6.8c-0.2,1.7-1.3,3.4-0.7,5
	c0.5,1.4,2.2,2.1,3.7,2c1.5-0.3,2.8-1,3.9-2.1c3.3-2.9,5.6-7.1,9.5-9.1c2.9-1.5,9.5-4.1,5.4-8.2C243.9,86.3,238.3,85.4,233.4,85.3z"
	/>
<path class="st4" d="M265,147c0.8-0.1,1.6,0.1,2.3,0.5c0.5,0.4,0.9,1,1,1.7c0.8,2.6,0.4,5.4,0,8.1c-0.6,4-0.1,10.5-1,14.4
	c-0.3,1.3-2,0.2-3.1,1c-1.5,1.2-3.6,0.8-5.4,1.4l-0.6-14.2c0-0.4-0.1-1-0.5-1.2c-0.2-0.1-0.4-0.1-0.7-0.1c-2.5,0.2-5,0.7-7.5,1.4
	c-1.8,0.5-3.6,1.2-4.9,2.4c-2.4,2.4-2.4,6.1-2.7,9.4c-0.6,7.4-2.8,14.6-6.5,21c-2.7,0-5.3-0.3-7.9-0.9c0-1.3,0.7-2.5,1.2-3.7
	c0.8-2.1,0.9-4.5,0.8-6.7c-0.2-5.1-0.9-10.1-0.8-15.1s1.1-10.3,4-14.4c3.1-4.3,8.5-7.2,13.8-6.1C252.7,147.2,258.8,147,265,147z"/>
<linearGradient id="SVGID_3_" gradientUnits="userSpaceOnUse" x1="624.2892" y1="-211.5967" x2="579.3892" y2="-164.3767" gradientTransform="matrix(0.6115 0 0 -0.6115 -121.4553 53.897)">
	<stop  offset="0" style="stop-color:#010101;stop-opacity:0"/>
	<stop  offset="0.95" style="stop-color:#010101"/>
</linearGradient>
<path class="st6" d="M265,147c0.8-0.1,1.6,0.1,2.3,0.5c0.5,0.4,0.9,1,1,1.7c0.8,2.6,0.4,5.4,0,8.1c-0.6,4-0.2,11.3-1.1,15.2
	c-0.3,1.3-1.9-0.6-2.9,0.3c-1.5,1.2-3.6,0.8-5.4,1.4l-0.6-14.2c0-0.4-0.1-1-0.5-1.2c-0.2-0.1-0.4-0.1-0.7-0.1
	c-2.5,0.2-5,0.7-7.5,1.4c-1.8,0.5-3.6,1.2-4.9,2.4c-2.4,2.4-2.4,6.1-2.7,9.4c-0.6,7.4-2.8,14.6-6.5,21c-2.7,0-5.3-0.3-7.9-0.9
	c0-1.3,0.7-2.5,1.2-3.7c0.8-2.1,0.9-4.5,0.8-6.7c-0.2-5.1-0.9-10.1-0.8-15.1s1.1-10.3,4-14.4c3.1-4.3,8.5-7.2,13.8-6.1
	C252.7,147.2,258.8,147,265,147z"/>
<path class="st1" d="M268.1,170.5c0.3,0,0.6,0,0.8,0.1c0.5,0.2,0.7,0.9,0.8,1.4c0.9,5.3,1.4,10.8,1.5,16.2c1.1-1,2.2-2,3.5-2.8
	c0.5-0.4,1.1-0.7,1.8-0.8c0.9-0.1,1.7,0.3,2.3,0.9c0.6,0.6,1,1.4,1.4,2.2c0.3,0.5,0.4,1,0.3,1.6c-0.1,0.4-0.4,0.7-0.7,0.9
	c-4.9,4.4-10.6,7.9-16.8,10.2c-0.7-2.7-0.1-5.6-0.3-8.4c-0.3-4.2-2.4-8-3.8-11.9c-0.7-1.8-1.5-3.8-1.5-5.7c0-1.7,1.1-2.3,2.6-2.6
	C262.6,171,265.3,170.6,268.1,170.5z"/>
<path class="st1" d="M237.6,190.2c1.2,5.3,1.3,10.8,0.4,16.1c-0.2,1.4-0.4,3.2,0.8,4c0.9,0.6,2,0.3,3.1,0.4c2.6,0.3,4.4,2.7,4.1,5.3
	c0,0.4-0.2,0.8-0.5,1c-0.3,0.2-0.7,0.3-1.1,0.3c-6.2,0.6-12.4,1-18.6,1.1c-0.6,0-1.2,0-1.5-0.5c-0.1-0.3-0.2-0.5-0.2-0.8
	c-0.3-7.3-1.2-15.3-0.3-22.5C224.7,188.3,233,190.2,237.6,190.2z"/>
<linearGradient id="SVGID_4_" gradientUnits="userSpaceOnUse" x1="637.9561" y1="-235.0981" x2="638.696" y2="-174.8181" gradientTransform="matrix(0.6115 0 0 -0.6115 -121.4553 53.897)">
	<stop  offset="0" style="stop-color:#FFFFFF;stop-opacity:0"/>
	<stop  offset="0.95" style="stop-color:#FFFFFF"/>
</linearGradient>
<path class="st7" d="M268.1,170.5c0.3,0,0.6,0,0.8,0.1c0.5,0.2,0.7,0.9,0.8,1.4c0.9,5.3,1.4,10.8,1.5,16.2c1.1-1,2.2-2,3.5-2.8
	c0.5-0.4,1.1-0.7,1.8-0.8c0.9-0.1,1.7,0.3,2.3,0.9c0.6,0.6,1,1.4,1.4,2.2c0.3,0.5,0.4,1,0.3,1.6c-0.1,0.4-0.4,0.7-0.7,0.9
	c-4.9,4.4-10.6,7.9-16.8,10.2c-0.7-2.7-0.1-5.6-0.3-8.4c-0.3-4.2-2.4-8-3.8-11.9c-0.7-1.8-1.5-3.8-1.5-5.7c0-1.7,1.1-2.3,2.6-2.6
	C262.6,171,265.3,170.6,268.1,170.5z"/>
<linearGradient id="SVGID_5_" gradientUnits="userSpaceOnUse" x1="564.1541" y1="-245.8541" x2="601.0424" y2="-245.8541" gradientTransform="matrix(0.6115 0 0 -0.6115 -121.4553 53.897)">
	<stop  offset="0" style="stop-color:#FFFFFF;stop-opacity:0"/>
	<stop  offset="0.95" style="stop-color:#FFFFFF"/>
</linearGradient>
<path class="st8" d="M237.6,190.2c1.2,5.3,1.3,10.8,0.4,16.1c-0.2,1.4-0.4,3.2,0.8,4c0.9,0.6,2,0.3,3.1,0.4c2.6,0.3,4.4,2.7,4.1,5.3
	c0,0.4-0.2,0.8-0.5,1c-0.3,0.2-0.7,0.3-1.1,0.3c-6.2,0.6-12.4,1-18.6,1.1c-0.6,0-1.2,0-1.5-0.5c-0.1-0.3-0.2-0.5-0.2-0.8
	c-0.3-7.3-1.2-15.3-0.3-22.5C224.7,188.3,233,190.2,237.6,190.2z"/>
<path class="st1" d="M249.6,109.1c2.1-1.7,3.5-4.1,4.7-6.6c2.1,1.1,4.1,2.4,5.9,4c0.6,0.4,0.8,1.1,0.5,1.7
	c-1.9,5.6-6.9,9.5-12.8,9.9c-2,0.1-4.2-0.3-5.6-1.7c-1.3-1.2-2.1-4.5-0.1-5.4c0.9-0.4,2.8,0.1,3.9-0.2
	C247.3,110.6,248.5,110,249.6,109.1z"/>
<linearGradient id="SVGID_6_" gradientUnits="userSpaceOnUse" x1="592.593" y1="-92.3541" x2="625.0026" y2="-92.3541" gradientTransform="matrix(0.6115 0 0 -0.6115 -121.4553 53.897)">
	<stop  offset="0" style="stop-color:#010101;stop-opacity:0"/>
	<stop  offset="0.95" style="stop-color:#010101"/>
</linearGradient>
<path class="st9" d="M249.6,109.1c2.1-1.7,3.5-4.1,4.7-6.6c2.1,1.1,4.1,2.4,5.9,4c0.6,0.4,0.8,1.1,0.5,1.7
	c-1.9,5.6-6.9,9.5-12.8,9.9c-2,0.1-4.2-0.3-5.6-1.7c-1.3-1.2-2.1-4.5-0.1-5.4c0.9-0.4,2.8,0.1,3.9-0.2
	C247.3,110.6,248.5,110,249.6,109.1z"/>
<linearGradient id="SVGID_7_" gradientUnits="userSpaceOnUse" x1="617.198" y1="-74.6146" x2="633.608" y2="-74.6146" gradientTransform="matrix(0.6115 0 0 -0.6115 -121.4553 53.897)">
	<stop  offset="0" style="stop-color:#E5C6D6"/>
	<stop  offset="0.42" style="stop-color:#EAD4D0"/>
	<stop  offset="1" style="stop-color:#F0E9CB"/>
</linearGradient>
<path class="st10" d="M256.5,96.9c0-1.2,0.1-2.6,1-3.4c0.9-0.9,2.2-1,3.4-1l2.8-0.1c0.5-0.1,1,0,1.5,0.2c0.6,0.4,0.7,1.2,0.8,1.9
	c0.1,1.1,0.3,2.3-0.3,3.3c-0.5,0.7-1.1,1.3-1.7,1.8c-1,0.9-1.9,2-2.6,3.1c-0.7,1.2-1.2,2.4-2.1,3.4c-0.4,0.4-1,0.7-1.5,0.7
	c-0.9-0.1-1.5-0.8-1.7-1.7c-0.2-1.2,0.2-2.6,0.3-3.9C256.4,99.8,256.4,98.3,256.5,96.9z"/>
<rect x="247.9" y="93.7" class="st1" width="7.7" height="2.5"/>
<linearGradient id="SVGID_8_" gradientUnits="userSpaceOnUse" x1="592.9294" y1="-65.2277" x2="593.6194" y2="-71.4277" gradientTransform="matrix(0.6115 0 0 -0.6115 -110.9428 53.952)">
	<stop  offset="0" style="stop-color:#010101;stop-opacity:0"/>
	<stop  offset="0.95" style="stop-color:#010101"/>
</linearGradient>
<rect x="247.9" y="93.7" class="st11" width="7.7" height="2.5"/>
<rect x="255.2" y="91.9" class="st1" width="13.9" height="5.4"/>
<rect x="268.9" y="90.1" class="st1" width="36.4" height="9.6"/>
<linearGradient id="SVGID_9_" gradientUnits="userSpaceOnUse" x1="609.9575" y1="-64.1877" x2="610.0975" y2="-74.5277" gradientTransform="matrix(0.6115 0 0 -0.6115 -110.9428 53.952)">
	<stop  offset="0" style="stop-color:#010101;stop-opacity:0"/>
	<stop  offset="0.95" style="stop-color:#010101"/>
</linearGradient>
<rect x="255.2" y="91.9" class="st12" width="13.9" height="5.4"/>
<linearGradient id="SVGID_10_" gradientUnits="userSpaceOnUse" x1="650.8151" y1="-60.4779" x2="651.2252" y2="-92.7379" gradientTransform="matrix(0.6115 0 0 -0.6115 -110.9428 53.952)">
	<stop  offset="0" style="stop-color:#010101;stop-opacity:0"/>
	<stop  offset="0.95" style="stop-color:#010101"/>
</linearGradient>
<polyline class="st13" points="268.9,90.1 305.3,90.1 305.3,99.7 268.9,99.7 "/>
<path class="st1" d="M309.5,152.6c-6.5-1.1-12,4.9-14.4,11s-3,13-6.5,18.4c-3.5,5.3-9.3,8.6-14.8,11.6c-9.2,5.1-18.5,10.2-28.7,12.6
	c-8,1.9-16.4,1.5-24.7,2c-98.2,6.5-135-6.1-164.5-25.3c4.3,13.4,9.5,26.5,15.6,39.1c3.7,7.8,7.9,15.6,14.2,21.5
	c7.1,6.8,16.5,10.8,25.9,13.6c36.6,11,75.8,6.6,113.8,2.2c11.6-1.4,23.4-2.8,34.2-7c21.5-8.3,38-27.8,44.1-50.1
	c1.9-7.2,2.9-14.6,3.8-21.9C308.6,171.2,308.3,161.8,309.5,152.6z"/>
<linearGradient id="SVGID_11_" gradientUnits="userSpaceOnUse" x1="504.2888" y1="-282.095" x2="511.6388" y2="-466.6151" gradientTransform="matrix(0.6115 0 0 -0.6115 -121.4553 53.897)">
	<stop  offset="0" style="stop-color:#010101;stop-opacity:0"/>
	<stop  offset="0.95" style="stop-color:#010101"/>
</linearGradient>
<path class="st14" d="M309.5,152.6c-1.1,9.2-0.9,18.6-2,27.8c-0.2,1.6-0.4,3.2-0.6,4.7c-0.7,5.8-1.7,11.6-3.2,17.2
	c-3.3,11.9-9.4,22.9-17.8,32c-7.3,8-16.3,14.2-26.3,18.1c-10.9,4.2-22.6,5.6-34.2,7c-38,4.5-77.2,8.8-113.8-2.2
	c-9.4-2.8-18.8-6.8-25.9-13.6c-0.9-0.9-1.7-1.7-2.5-2.7c-4.9-5.5-8.4-12.2-11.6-18.9c-4.2-8.7-5.9-12.3-8-18l0,0
	c-0.9-2.6-1.9-5.7-3.3-9.8c29.6,19.1,120.6,20.9,141.6,20.9c8.3,0,35.2-7,43.3-8.9c10.2-2.4,19.6-7.5,28.7-12.6
	c5.5-3.1,11.3-6.3,14.8-11.6c3.6-5.5,4.2-12.3,6.5-18.4C297.5,157.5,303,151.5,309.5,152.6z"/>
<path class="st1" d="M86.6,169.2c2.4-5,5.6-9.8,10.5-12.2c3.5-1.8,7.6-2.1,11.5-1.9c3.4,0.2,7.1,1.1,8.9,3.9
	c1.3,2.1,1.4,4.8,3.2,6.6c1.4,1.4,3.6,1.9,4.5,3.6c1.1,2.1-0.5,4.7-2.7,5.7c-2.1,1-4.6,0.8-6.9,1c-1,0.1-2.1,0.2-2.7,1
	c-0.4,0.7-0.7,1.5-0.6,2.3l-1.1,22.2c0,0.9-0.2,1.8-0.7,2.6c-1.1,1.5-3.4,1.2-5.3,0.7L87,199.6c-1.9-0.5-3.8-1.1-5.3-2.3
	c-3.2-2.7-0.7-8.7-0.1-12.2C82.5,179.5,84.2,174.2,86.6,169.2z"/>
<path class="st1" d="M90,170.5c-1.3,4.5-2.5,9.5-0.1,13.5c0.2,0.4,0.5,0.7,0.9,0.9c0.4,0.1,0.8,0.2,1.2,0.1c1.7-0.4,3.1-1.4,4-2.9
	c0.9-1.5,1.5-3.1,1.7-4.7c0.8-4,0.6-8.2,1.5-12.2c0.5-2.1,1.4-4.4,3.4-5.3c-2.2-0.1-4.3,0.8-5.9,2.4c-1.5,1.6-2.6,3.6-3.8,5.4
	C91.9,169,90.5,168.8,90,170.5z"/>
<path class="st1" d="M77.8,179.1c-0.3-2.4-0.7-4.9-2.3-6.7c-1.6-1.7-4.1-2.2-6.3-1.4c-2.1,0.9-3.6,2.9-3.8,5.2c0,0.3,0,0.6,0.1,0.9
	c0.2,0.6,1,0.9,1.5,1.3c1.7,1.3,1.6,3.7,2.1,5.8c0.5,2.3,1.8,4.3,3.1,6.2c1.5,2.2,3.3,4.6,6,5c3.9,0.6,2.1-3.2,1.5-5.1
	C78.6,186.7,78.3,182.8,77.8,179.1z"/>
<linearGradient id="SVGID_12_" gradientUnits="userSpaceOnUse" x1="350.2014" y1="-273.2962" x2="366.3814" y2="-208.6062" gradientTransform="matrix(0.6115 0 0 -0.6115 -121.4553 53.897)">
	<stop  offset="0" style="stop-color:#FFFFFF;stop-opacity:0"/>
	<stop  offset="0.95" style="stop-color:#FFFFFF"/>
</linearGradient>
<path class="st15" d="M86.6,169.2c2.4-5,5.6-9.8,10.5-12.2c3.5-1.8,7.6-2.1,11.5-1.9c3.4,0.2,7.1,1.1,8.9,3.9
	c1.3,2.1,1.4,4.8,3.2,6.6c1.4,1.4,3.6,1.9,4.5,3.6c1.1,2.1-0.5,4.7-2.7,5.7c-2.1,1-4.6,0.8-6.9,1c-1,0.1-2.1,0.2-2.7,1
	c-0.4,0.7-0.7,1.5-0.6,2.3l-1.1,22.2c0,0.9-0.2,1.8-0.7,2.6c-1.1,1.5-3.4,1.2-5.3,0.7L87,199.6c-1.9-0.5-3.8-1.1-5.3-2.3
	c-3.2-2.7-0.7-8.7-0.1-12.2C82.5,179.5,84.2,174.2,86.6,169.2z"/>
<linearGradient id="SVGID_13_" gradientUnits="userSpaceOnUse" x1="342.9644" y1="-196.323" x2="365.988" y2="-196.323" gradientTransform="matrix(0.6115 0 0 -0.6115 -121.4553 53.897)">
	<stop  offset="0" style="stop-color:#010101;stop-opacity:0"/>
	<stop  offset="0.95" style="stop-color:#010101"/>
</linearGradient>
<path class="st16" d="M89.8,172c-1.3,4.5-2.5,9.5-0.1,13.5c0.2,0.4,0.5,0.7,0.9,0.9c0.4,0.1,0.8,0.2,1.2,0.1c1.7-0.4,3.1-1.4,4-2.9
	c0.9-1.5,1.5-3.1,1.7-4.7c0.8-4,0.6-8.2,1.5-12.2c0.5-2.1,1.4-4.4,3.4-5.3c-2.2-0.1-4.3,0.8-5.9,2.4c-1.5,1.6-2.6,3.6-3.8,5.4
	C91.7,170.6,90.3,170.4,89.8,172z"/>
<path class="st17" d="M88.7,170.3c-1.9,4.2-3.7,9.1-1.9,13.4c0.1,0.4,0.4,0.8,0.7,1c0.4,0.2,0.8,0.3,1.2,0.2c1.7-0.2,3.3-1,4.4-2.3
	c1.1-1.3,1.9-2.8,2.4-4.5c1.3-3.9,1.7-8.1,3.1-11.9c0.8-2,2-4.1,4.1-4.8c-2.2-0.4-4.4,0.2-6.1,1.6c-1.7,1.4-3,3.2-4.5,4.9
	C90.8,169,89.4,168.7,88.7,170.3z"/>
<linearGradient id="SVGID_14_" gradientUnits="userSpaceOnUse" x1="337.731" y1="-218.6831" x2="309.791" y2="-205.8231" gradientTransform="matrix(0.6115 0 0 -0.6115 -121.4553 53.897)">
	<stop  offset="0" style="stop-color:#FFFFFF;stop-opacity:0"/>
	<stop  offset="0.95" style="stop-color:#FFFFFF"/>
</linearGradient>
<path class="st18" d="M77.8,179.1c-0.3-2.4-0.7-4.9-2.3-6.7c-1.6-1.7-4.1-2.2-6.3-1.4c-2.1,0.9-3.6,2.9-3.8,5.2c0,0.3,0,0.6,0.1,0.9
	c0.2,0.6,1,0.9,1.5,1.3c1.7,1.3,1.6,3.7,2.1,5.8c0.5,2.3,1.8,4.3,3.1,6.2c1.5,2.2,3.3,4.6,6,5c3.9,0.6,2.1-3.2,1.5-5.1
	C78.6,186.7,78.3,182.8,77.8,179.1z"/>
<linearGradient id="SVGID_15_" gradientUnits="userSpaceOnUse" x1="638.858" y1="-70.5123" x2="660.718" y2="-70.5123" gradientTransform="matrix(0.6115 0 0 -0.6115 -121.4553 53.897)">
	<stop  offset="0" style="stop-color:#E5C6D6"/>
	<stop  offset="0.42" style="stop-color:#EAD4D0"/>
	<stop  offset="1" style="stop-color:#F0E9CB"/>
</linearGradient>
<path class="st19" d="M271.7,92.7c0.5-0.1,1,0.2,1.5,0.2c1.1,0,1.5-1.5,2.4-2.2c0.7-0.5,1.7-0.7,2.6-0.5c0.9,0.1,1.7,0.4,2.6,0.5
	c0.4,0,0.7,0,1,0.1c0.9,0.4,0.9,1.6,0.7,2.6c-0.3,1.7-0.6,3.6-1.7,4.9c-1.4,1.7-3.8,2.4-4.9,4.3c-0.2,0.4-0.4,0.7-0.7,1.1
	c-0.6,0.4-1.4,0.5-2,0.2c-1.9-0.5-4.3-2.7-4-4.9c0.2-1.2,1.1-2.2,1.4-3.4C270.9,94.8,270.6,93,271.7,92.7z"/>
<path class="st1" d="M267.6,98.7c0.8,1.6,2.1,2.9,3.5,4.1l4.6,4.2c-3.7,3.3-6.7,7.2-10.5,10.4c-4.9,4-10.9,6.3-16.8,8.7
	c0.1,4.7,0,9.3,0,14c0.1,2.3,0,4.6-0.3,6.8c-0.5,3.1-1.8,6.1-2.7,9.2c-1.1,3.7-1.7,7.5-1.7,11.4c-5.8,0.5-11.5,0.8-17.3,0.8
	c-3.4,0-7.1-0.1-9.7-2.2c3.9-7.1,7.8-14.4,8.8-22.4c1-8.3-1.3-16.7,0.3-24.9c0.4-2.1,1.2-4.3,2.9-5.6c2.6-1.9,6.2-1,9.4-0.4
	c3.8,0.8,7.7,1,11.6,0.8c1.3,0,2.5-0.3,3.7-0.8c1.4-0.7,2.5-2,3.5-3.3C260,105.4,263.4,101.6,267.6,98.7z"/>
<linearGradient id="SVGID_16_" gradientUnits="userSpaceOnUse" x1="617.5279" y1="-151.7778" x2="537.3979" y2="-70.1778" gradientTransform="matrix(0.6115 0 0 -0.6115 -121.4553 53.897)">
	<stop  offset="0" style="stop-color:#FFFFFF;stop-opacity:0"/>
	<stop  offset="0.95" style="stop-color:#FFFFFF"/>
</linearGradient>
<path class="st20" d="M267.6,98.7c0.8,1.6,2.1,2.9,3.5,4.1l4.6,4.2c-3.7,3.3-6.7,7.2-10.5,10.4c-4.9,4-10.9,6.3-16.8,8.7
	c0.1,4.7,0,9.3,0,14c0.1,2.3,0,4.6-0.3,6.8c-0.5,3.1-1.8,6.1-2.7,9.2c-1.1,3.7-1.7,7.5-1.7,11.4c-5.8,0.5-11.5,0.8-17.3,0.8
	c-3.4,0-7.1-0.1-9.7-2.2c3.9-7.1,7.8-14.4,8.8-22.4c1-8.3-1.3-16.7,0.3-24.9c0.4-2.1,1.2-4.3,2.9-5.6c2.6-1.9,6.2-1,9.4-0.4
	c3.8,0.8,7.7,1,11.6,0.8c1.3,0,2.5-0.3,3.7-0.8c1.4-0.7,2.5-2,3.5-3.3C260,105.4,263.4,101.6,267.6,98.7z"/>
<linearGradient id="SVGID_17_" gradientUnits="userSpaceOnUse" x1="584.8167" y1="-117.8684" x2="554.8567" y2="-47.1184" gradientTransform="matrix(0.6115 0 0 -0.6115 -121.4553 53.897)">
	<stop  offset="0" style="stop-color:#010101;stop-opacity:0"/>
	<stop  offset="0.95" style="stop-color:#010101"/>
</linearGradient>
<path class="st21" d="M225.1,129.2c3-0.2,5.7-2.2,6.8-5c0.5-1.4,0.6-2.9,1.4-4.1c0.8-1.1,2-1.8,3.2-2.4c1.4-0.8,2.9-1.5,4.4-2
	c0.9-0.2,1.7-0.6,2.5-1c0.2-0.1,0.3-0.2,0.3-0.4c0-0.2-0.1-0.4-0.3-0.6c-0.6-0.4-1.4-0.7-2.1-0.7c-2.2-0.4-4.4-0.7-6.6-0.2
	c-1.8,0.5-3.5,1.4-5,2.5c-1.3,0.8-2.5,1.8-3.3,3.1c-1,1.7-1.1,3.7-1.4,5.6C224.8,124.5,224.7,129.2,225.1,129.2z"/>
<path class="st1" d="M216.8,113.4c-0.9,0.3-1.4,1.3-1.1,2.2c0.6,4,1.9,7.8,4,11.3c0.2,0.5,0.8,0.8,1.3,0.6c0,0,0,0,0,0
	c2-0.3,3.9-1.3,5.3-2.8c1.2-1.2,1.9-2.8,2.9-4.2c1.8-2.5,4.3-4.6,7.2-5.9c2.8-1.4,2.8-3.5-0.3-4.8
	C230.5,107.4,221.7,110.5,216.8,113.4z"/>
<linearGradient id="SVGID_18_" gradientUnits="userSpaceOnUse" x1="573.5046" y1="-112.0661" x2="568.2646" y2="-91.9361" gradientTransform="matrix(0.6115 0 0 -0.6115 -121.4553 53.897)">
	<stop  offset="0" style="stop-color:#FFFFFF;stop-opacity:0"/>
	<stop  offset="0.95" style="stop-color:#FFFFFF"/>
</linearGradient>
<path class="st22" d="M216.8,113.4c-0.9,0.3-1.4,1.3-1.1,2.2c0.6,4,1.9,7.8,4,11.3c0.2,0.5,0.8,0.8,1.3,0.6c0,0,0,0,0,0
	c2-0.3,3.9-1.3,5.3-2.8c1.2-1.2,1.9-2.8,2.9-4.2c1.8-2.5,4.3-4.6,7.2-5.9c2.8-1.4,2.8-3.5-0.3-4.8
	C230.5,107.4,221.7,110.5,216.8,113.4z"/>
<linearGradient id="SVGID_19_" gradientUnits="userSpaceOnUse" x1="500.495" y1="-215.2951" x2="531.365" y2="-755.6251" gradientTransform="matrix(0.6115 0 0 -0.6115 -121.4553 53.897)">
	<stop  offset="0" style="stop-color:#010101;stop-opacity:0"/>
	<stop  offset="0.95" style="stop-color:#010101"/>
</linearGradient>
<path class="st23" d="M306.8,185.2c-0.7,5.8-1.7,11.6-3.2,17.2c-3.3,11.9-9.4,22.9-17.8,32c-9.3,6.1-24.4,12.4-47.6,13.7
	c-42.4,2.4-117.9,2.7-155.2-7.1c-4.9-5.5-8.4-12.2-11.6-18.9c-4.2-8.7-5.9-12.3-8-18c10.5,6.5,47.6,25.4,118.1,19.8
	c84.6-6.7,103.5-11.1,119.7-34.4L306.8,185.2z"/>
<path class="st24" d="M364,280.3c-13.5,9.5-30.2,15.6-46.5,18.8c-52.9,10.2-107.5-1.3-161.3,2.4c-22.6,1.5-45.3,5.8-67.9,4.2
	c-11.3-0.8-28.4-6.7-43.4-16.2c-13.8-8.8-25.7-20.5-29.6-34.2c-0.4-1.3-0.7-2.7-0.9-4c0,0,27-13.6,54.3-16.1
	c9.9-0.9,19.9-0.3,28.6,2.9c1.6,0.6,3.1,1.1,4.7,1.7c23.9,8.9,49.3,18.5,73.6,11.4c10.2-3,19.3-8.9,29.2-12.6
	c19.4-7.3,40.9-6.6,59.8,2c5.1,2.3,10.2,5.3,15.8,5.6c10.5,0.6,18.9-8,28-13c1-0.6,2.1-1.1,3.1-1.6c10.5-4.9,21.8-5.5,33.4-3.8
	c15.2,2.3,30.6,8.8,44.7,15.4C390,243.5,377,271.3,364,280.3z"/>
<path class="st24" d="M389.5,243.2c0.5,0.3-12.6,28.1-25.6,37.1c-24.8,5.9-50.8,5.1-76.4,5.3c-79.5,0.8-159.2,12.4-238.3,4.3
	c-1.5-0.1-2.9-0.3-4.4-0.5c-13.8-8.8-25.7-20.5-29.6-34.2c-1.4-1.8-2.6-3.8-3.6-5.9c-4.2-8.6-6.4-19.1-7.2-30
	c8.2-2.7,16.9-3.2,25.3-1.5c13.8,2.8,26.1,11.4,38.9,17.3c7,3.2,14.2,5.6,22,5.8c3.8,0,7.6-0.4,11.3-1.2c8.9-1.9,17.5-5.9,26.2-9
	c35-12.5,73.2-11.4,110.3-10.1c23.6,0.8,47.7,1.7,69.9,9.7l3.1,1.1c6.7,2.4,13.5,5,20.4,3.5c5-1,9.1-3.9,13-7.3
	c4.2-3.7,8.2-8,12.8-11.1c9.2-6.2,28.5-9.5,37.2-0.3c1.5,1.6,2.7,3.4,3.7,5.4C396.7,229.4,393.9,236.8,389.5,243.2z"/>
<path class="st1" d="M122,165.5c-0.4-0.1-0.8-0.1-1.1,0c-0.4,0.1-0.7,0.4-0.8,0.7c-0.1,0.6,0.4,1.1,0.8,1.5l1.1,0.9
	c0.3,0.3,0.6,0.5,1,0.6c0.4,0.1,0.8,0.1,1.1-0.2c0.1-0.2,0.2-0.4,0.3-0.6c0.1-0.8-0.1-1.5-0.6-2.1c-0.5-0.6-1.4-0.7-2.1-0.4"/>
<linearGradient id="SVGID_20_" gradientUnits="userSpaceOnUse" x1="397.8629" y1="-181.7987" x2="399.5129" y2="-191.5387" gradientTransform="matrix(0.6115 0 0 -0.6115 -121.4553 53.897)">
	<stop  offset="0" style="stop-color:#010101;stop-opacity:0"/>
	<stop  offset="0.95" style="stop-color:#010101"/>
</linearGradient>
<path class="st25" d="M122,165.5c-0.4-0.1-0.8-0.1-1.1,0c-0.4,0.1-0.7,0.4-0.8,0.7c-0.1,0.6,0.4,1.1,0.8,1.5l1.1,0.9
	c0.3,0.3,0.6,0.5,1,0.6c0.4,0.1,0.8,0.1,1.1-0.2c0.1-0.2,0.2-0.4,0.3-0.6c0.1-0.8-0.1-1.5-0.6-2.1c-0.5-0.6-1.4-0.7-2.1-0.4"/>
<linearGradient id="SVGID_21_" gradientUnits="userSpaceOnUse" x1="368.6397" y1="-179.8176" x2="369.4197" y2="-184.4176" gradientTransform="matrix(0.6115 0 0 -0.6115 -110.9428 53.952)">
	<stop  offset="0" style="stop-color:#010101;stop-opacity:0"/>
	<stop  offset="0.95" style="stop-color:#010101"/>
</linearGradient>
<circle class="st26" cx="114.7" cy="165" r="1"/>
<linearGradient id="SVGID_22_" gradientUnits="userSpaceOnUse" x1="370.483" y1="-224.8136" x2="257.583" y2="-321.2636" gradientTransform="matrix(0.6115 0 0 -0.6115 -121.4553 53.897)">
	<stop  offset="0" style="stop-color:#010101;stop-opacity:0"/>
	<stop  offset="0.95" style="stop-color:#010101"/>
</linearGradient>
<path class="st27" d="M96.4,188.4c0,1.3,0.1,2.6,0.4,3.9c0.3,1.1,0.9,2.2,1.2,3.4c0.4,1.1,0.5,2.4,0.9,3.5c0.5,1.7,0.7,3.3,3.8,4.7
	c-5.6-1.4-6.4-1.1-6.3-5C96.5,195.3,96.5,191.9,96.4,188.4z"/>
</svg>
